# xmcd
#
# Track frame offsets:
#	150
#	19122
#	33967
#	53215
#	67110
#	87517
#	106675
#	122710
#	138792
#	156815
#
# Disc length: 2310 seconds
#
# Revision: 0
# Processed by: cddbd v1.5.2PL0 Copyright (c) Steve Scherf et al.
# Submitted via: EZCDAudioConverter 5.5.0.1
#
DISCID=7d09040a
DTITLE=Los Hermanos Zabaleta - Tarde o Temprano
DYEAR=1998
DGENRE=Balada
TTITLE0=Voy a Ver
TTITLE1=Pasan Sin Mirar
TTITLE2=Hay Que Tienes Nila
TTITLE3=Tarde o Temprano
TTITLE4=Hola Amigo
TTITLE5=Estas Herida
TTITLE6=Prisionero en el Tiempo
TTITLE7=Enamorada Estas
TTITLE8=En Este Hermoso Dia de Abril
TTITLE9=Anoche Yo Soñe
EXTD=
EXTT0=
EXTT1=
EXTT2=
EXTT3=
EXTT4=
EXTT5=
EXTT6=
EXTT7=
EXTT8=
EXTT9=
PLAYORDER=
